<mxfile host="www.draw.io" modified="2020-01-07T03:13:34.046Z" agent="Mozilla/5.0 (Windows NT 6.1; Win64; x64) AppleWebKit/537.36 (KHTML, like Gecko) Chrome/76.0.3809.100 Safari/537.36" etag="4URCGshQ9Sy9yZKIX3-g" version="12.4.9" type="github">
  <diagram id="SOJMbYDi3jxJAX-_P0bx" name="第 1 页">
    <mxGraphModel dx="2146" dy="788" grid="1" gridSize="10" guides="1" tooltips="1" connect="1" arrows="1" fold="1" page="1" pageScale="1" pageWidth="827" pageHeight="1169" math="0" shadow="0">
      <root>
        <mxCell id="0"/>
        <mxCell id="1" parent="0"/>
        <mxCell id="DOr79SxjIFYAmsH0iGoC-4" style="edgeStyle=orthogonalEdgeStyle;rounded=0;orthogonalLoop=1;jettySize=auto;html=1;entryX=0.5;entryY=0;entryDx=0;entryDy=0;" edge="1" parent="1">
          <mxGeometry relative="1" as="geometry">
            <mxPoint x="270" y="190" as="targetPoint"/>
            <mxPoint x="270" y="80" as="sourcePoint"/>
          </mxGeometry>
        </mxCell>
        <mxCell id="DOr79SxjIFYAmsH0iGoC-5" value="N" style="edgeStyle=orthogonalEdgeStyle;rounded=0;orthogonalLoop=1;jettySize=auto;html=1;exitX=1;exitY=0.5;exitDx=0;exitDy=0;" edge="1" parent="1" source="DOr79SxjIFYAmsH0iGoC-6" target="DOr79SxjIFYAmsH0iGoC-11">
          <mxGeometry relative="1" as="geometry">
            <mxPoint x="410" y="193" as="targetPoint"/>
          </mxGeometry>
        </mxCell>
        <mxCell id="DOr79SxjIFYAmsH0iGoC-44" style="edgeStyle=orthogonalEdgeStyle;rounded=0;orthogonalLoop=1;jettySize=auto;html=1;" edge="1" parent="1" source="DOr79SxjIFYAmsH0iGoC-6" target="DOr79SxjIFYAmsH0iGoC-14">
          <mxGeometry relative="1" as="geometry"/>
        </mxCell>
        <mxCell id="DOr79SxjIFYAmsH0iGoC-6" value="&lt;span style=&quot;white-space: normal&quot;&gt;检测网络&lt;/span&gt;" style="rhombus;whiteSpace=wrap;html=1;direction=east;" vertex="1" parent="1">
          <mxGeometry x="201" y="153" width="138" height="80" as="geometry"/>
        </mxCell>
        <mxCell id="DOr79SxjIFYAmsH0iGoC-7" style="edgeStyle=orthogonalEdgeStyle;rounded=0;orthogonalLoop=1;jettySize=auto;html=1;" edge="1" parent="1" source="DOr79SxjIFYAmsH0iGoC-11">
          <mxGeometry relative="1" as="geometry">
            <mxPoint x="270" y="153" as="targetPoint"/>
            <Array as="points">
              <mxPoint x="453" y="110"/>
              <mxPoint x="270" y="110"/>
            </Array>
          </mxGeometry>
        </mxCell>
        <mxCell id="DOr79SxjIFYAmsH0iGoC-8" value="N" style="text;html=1;resizable=0;points=[];align=center;verticalAlign=middle;labelBackgroundColor=#ffffff;" vertex="1" connectable="0" parent="DOr79SxjIFYAmsH0iGoC-7">
          <mxGeometry x="-0.7173" y="1" relative="1" as="geometry">
            <mxPoint as="offset"/>
          </mxGeometry>
        </mxCell>
        <mxCell id="DOr79SxjIFYAmsH0iGoC-9" style="edgeStyle=orthogonalEdgeStyle;rounded=0;orthogonalLoop=1;jettySize=auto;html=1;entryX=0.5;entryY=0;entryDx=0;entryDy=0;" edge="1" parent="1" source="DOr79SxjIFYAmsH0iGoC-11" target="DOr79SxjIFYAmsH0iGoC-34">
          <mxGeometry relative="1" as="geometry"/>
        </mxCell>
        <mxCell id="DOr79SxjIFYAmsH0iGoC-10" value="Y" style="text;html=1;resizable=0;points=[];align=center;verticalAlign=middle;labelBackgroundColor=#ffffff;" vertex="1" connectable="0" parent="DOr79SxjIFYAmsH0iGoC-9">
          <mxGeometry x="-0.0093" y="1" relative="1" as="geometry">
            <mxPoint as="offset"/>
          </mxGeometry>
        </mxCell>
        <mxCell id="DOr79SxjIFYAmsH0iGoC-11" value="失败次数是否超过指定次数" style="rhombus;whiteSpace=wrap;html=1;" vertex="1" parent="1">
          <mxGeometry x="413" y="153" width="80" height="80" as="geometry"/>
        </mxCell>
        <mxCell id="DOr79SxjIFYAmsH0iGoC-13" value="N" style="edgeStyle=orthogonalEdgeStyle;rounded=0;orthogonalLoop=1;jettySize=auto;html=1;" edge="1" parent="1" source="DOr79SxjIFYAmsH0iGoC-14" target="DOr79SxjIFYAmsH0iGoC-28">
          <mxGeometry relative="1" as="geometry">
            <mxPoint x="120" y="430" as="targetPoint"/>
          </mxGeometry>
        </mxCell>
        <mxCell id="DOr79SxjIFYAmsH0iGoC-50" style="edgeStyle=orthogonalEdgeStyle;rounded=0;orthogonalLoop=1;jettySize=auto;html=1;" edge="1" parent="1" source="DOr79SxjIFYAmsH0iGoC-14">
          <mxGeometry relative="1" as="geometry">
            <mxPoint x="270" y="470" as="targetPoint"/>
          </mxGeometry>
        </mxCell>
        <mxCell id="DOr79SxjIFYAmsH0iGoC-14" value="从Server_Url&lt;br&gt;读取XM_URL和&lt;br&gt;AD_Url" style="rhombus;whiteSpace=wrap;html=1;" vertex="1" parent="1">
          <mxGeometry x="195" y="290" width="150" height="80" as="geometry"/>
        </mxCell>
        <mxCell id="DOr79SxjIFYAmsH0iGoC-16" value="N" style="edgeStyle=orthogonalEdgeStyle;rounded=0;orthogonalLoop=1;jettySize=auto;html=1;" edge="1" parent="1" target="DOr79SxjIFYAmsH0iGoC-24">
          <mxGeometry relative="1" as="geometry">
            <mxPoint x="270" y="550" as="sourcePoint"/>
          </mxGeometry>
        </mxCell>
        <mxCell id="DOr79SxjIFYAmsH0iGoC-22" value="" style="edgeStyle=orthogonalEdgeStyle;rounded=0;orthogonalLoop=1;jettySize=auto;html=1;" edge="1" parent="1" source="DOr79SxjIFYAmsH0iGoC-24" target="DOr79SxjIFYAmsH0iGoC-27">
          <mxGeometry relative="1" as="geometry"/>
        </mxCell>
        <mxCell id="DOr79SxjIFYAmsH0iGoC-23" value="" style="edgeStyle=orthogonalEdgeStyle;rounded=0;orthogonalLoop=1;jettySize=auto;html=1;" edge="1" parent="1" source="DOr79SxjIFYAmsH0iGoC-24">
          <mxGeometry relative="1" as="geometry">
            <mxPoint x="270" y="729.5" as="targetPoint"/>
          </mxGeometry>
        </mxCell>
        <mxCell id="DOr79SxjIFYAmsH0iGoC-24" value="登录" style="rhombus;whiteSpace=wrap;html=1;" vertex="1" parent="1">
          <mxGeometry x="195" y="619.5" width="150" height="76" as="geometry"/>
        </mxCell>
        <mxCell id="DOr79SxjIFYAmsH0iGoC-25" value="N" style="edgeStyle=orthogonalEdgeStyle;rounded=0;orthogonalLoop=1;jettySize=auto;html=1;" edge="1" parent="1" source="DOr79SxjIFYAmsH0iGoC-27">
          <mxGeometry relative="1" as="geometry">
            <mxPoint x="270" y="590" as="targetPoint"/>
            <Array as="points">
              <mxPoint x="453" y="589.5"/>
            </Array>
          </mxGeometry>
        </mxCell>
        <mxCell id="DOr79SxjIFYAmsH0iGoC-26" value="Y" style="edgeStyle=orthogonalEdgeStyle;rounded=0;orthogonalLoop=1;jettySize=auto;html=1;entryX=0;entryY=0.5;entryDx=0;entryDy=0;" edge="1" parent="1" source="DOr79SxjIFYAmsH0iGoC-27" target="DOr79SxjIFYAmsH0iGoC-36">
          <mxGeometry relative="1" as="geometry"/>
        </mxCell>
        <mxCell id="DOr79SxjIFYAmsH0iGoC-27" value="失败次数是否超过&lt;br&gt;指定次数" style="rhombus;whiteSpace=wrap;html=1;" vertex="1" parent="1">
          <mxGeometry x="387" y="627.5" width="133" height="60" as="geometry"/>
        </mxCell>
        <mxCell id="DOr79SxjIFYAmsH0iGoC-49" style="edgeStyle=orthogonalEdgeStyle;rounded=0;orthogonalLoop=1;jettySize=auto;html=1;exitX=1;exitY=0.5;exitDx=0;exitDy=0;entryX=0;entryY=0.5;entryDx=0;entryDy=0;" edge="1" parent="1" source="DOr79SxjIFYAmsH0iGoC-28" target="DOr79SxjIFYAmsH0iGoC-51">
          <mxGeometry relative="1" as="geometry">
            <mxPoint x="210" y="500" as="targetPoint"/>
          </mxGeometry>
        </mxCell>
        <mxCell id="DOr79SxjIFYAmsH0iGoC-28" value="&lt;span style=&quot;white-space: normal&quot;&gt;从本地配置读取&lt;/span&gt;&lt;br style=&quot;white-space: normal&quot;&gt;&lt;span style=&quot;white-space: normal&quot;&gt;XM_URL&lt;/span&gt;&lt;br style=&quot;white-space: normal&quot;&gt;&lt;span style=&quot;white-space: normal&quot;&gt;AD_URL&lt;/span&gt;" style="rounded=0;whiteSpace=wrap;html=1;" vertex="1" parent="1">
          <mxGeometry x="-10" y="410" width="120" height="60" as="geometry"/>
        </mxCell>
        <mxCell id="DOr79SxjIFYAmsH0iGoC-29" value="" style="edgeStyle=orthogonalEdgeStyle;rounded=0;orthogonalLoop=1;jettySize=auto;html=1;" edge="1" parent="1" source="DOr79SxjIFYAmsH0iGoC-30">
          <mxGeometry relative="1" as="geometry">
            <mxPoint x="270" y="823.5" as="targetPoint"/>
          </mxGeometry>
        </mxCell>
        <mxCell id="DOr79SxjIFYAmsH0iGoC-30" value="&lt;span style=&quot;white-space: normal&quot;&gt;加载Launcher&lt;/span&gt;" style="rounded=0;whiteSpace=wrap;html=1;" vertex="1" parent="1">
          <mxGeometry x="210" y="729.5" width="120" height="60" as="geometry"/>
        </mxCell>
        <mxCell id="DOr79SxjIFYAmsH0iGoC-31" value="结束" style="rounded=1;whiteSpace=wrap;html=1;" vertex="1" parent="1">
          <mxGeometry x="210" y="823.5" width="120" height="60" as="geometry"/>
        </mxCell>
        <mxCell id="DOr79SxjIFYAmsH0iGoC-32" value="开始" style="rounded=1;whiteSpace=wrap;html=1;" vertex="1" parent="1">
          <mxGeometry x="210" y="26" width="120" height="60" as="geometry"/>
        </mxCell>
        <mxCell id="DOr79SxjIFYAmsH0iGoC-33" style="edgeStyle=orthogonalEdgeStyle;rounded=0;orthogonalLoop=1;jettySize=auto;html=1;entryX=1;entryY=0.5;entryDx=0;entryDy=0;" edge="1" parent="1" source="DOr79SxjIFYAmsH0iGoC-34" target="DOr79SxjIFYAmsH0iGoC-31">
          <mxGeometry relative="1" as="geometry">
            <Array as="points">
              <mxPoint x="960" y="860"/>
              <mxPoint x="330" y="860"/>
            </Array>
          </mxGeometry>
        </mxCell>
        <mxCell id="DOr79SxjIFYAmsH0iGoC-34" value="无网络连接, 请检查网络" style="rounded=0;whiteSpace=wrap;html=1;" vertex="1" parent="1">
          <mxGeometry x="900" y="270" width="120" height="60" as="geometry"/>
        </mxCell>
        <mxCell id="DOr79SxjIFYAmsH0iGoC-35" style="edgeStyle=orthogonalEdgeStyle;rounded=0;orthogonalLoop=1;jettySize=auto;html=1;exitX=1;exitY=0.5;exitDx=0;exitDy=0;" edge="1" parent="1" source="DOr79SxjIFYAmsH0iGoC-36">
          <mxGeometry relative="1" as="geometry">
            <mxPoint x="960" y="658" as="targetPoint"/>
          </mxGeometry>
        </mxCell>
        <mxCell id="DOr79SxjIFYAmsH0iGoC-36" value="登录失败" style="rounded=0;whiteSpace=wrap;html=1;" vertex="1" parent="1">
          <mxGeometry x="600" y="627.5" width="120" height="60" as="geometry"/>
        </mxCell>
        <mxCell id="DOr79SxjIFYAmsH0iGoC-56" style="edgeStyle=orthogonalEdgeStyle;rounded=0;orthogonalLoop=1;jettySize=auto;html=1;entryX=0.5;entryY=0;entryDx=0;entryDy=0;" edge="1" parent="1" source="DOr79SxjIFYAmsH0iGoC-51" target="DOr79SxjIFYAmsH0iGoC-53">
          <mxGeometry relative="1" as="geometry"/>
        </mxCell>
        <mxCell id="DOr79SxjIFYAmsH0iGoC-58" value="Y" style="text;html=1;align=center;verticalAlign=middle;resizable=0;points=[];labelBackgroundColor=#ffffff;" vertex="1" connectable="0" parent="DOr79SxjIFYAmsH0iGoC-56">
          <mxGeometry x="-0.0581" y="-1" relative="1" as="geometry">
            <mxPoint as="offset"/>
          </mxGeometry>
        </mxCell>
        <mxCell id="DOr79SxjIFYAmsH0iGoC-51" value="7天内是否登录过" style="rhombus;whiteSpace=wrap;html=1;" vertex="1" parent="1">
          <mxGeometry x="230" y="470" width="80" height="80" as="geometry"/>
        </mxCell>
        <mxCell id="DOr79SxjIFYAmsH0iGoC-57" style="edgeStyle=orthogonalEdgeStyle;rounded=0;orthogonalLoop=1;jettySize=auto;html=1;entryX=0;entryY=0.5;entryDx=0;entryDy=0;" edge="1" parent="1" source="DOr79SxjIFYAmsH0iGoC-53" target="DOr79SxjIFYAmsH0iGoC-30">
          <mxGeometry relative="1" as="geometry">
            <Array as="points">
              <mxPoint x="50" y="760"/>
            </Array>
          </mxGeometry>
        </mxCell>
        <mxCell id="DOr79SxjIFYAmsH0iGoC-53" value="登录至主页，更新登录信息" style="rounded=0;whiteSpace=wrap;html=1;" vertex="1" parent="1">
          <mxGeometry x="-10" y="640" width="120" height="60" as="geometry"/>
        </mxCell>
        <mxCell id="DOr79SxjIFYAmsH0iGoC-54" value="账号被限制，依然能登录上" style="rhombus;whiteSpace=wrap;html=1;" vertex="1" parent="1">
          <mxGeometry x="-130" y="700" width="80" height="80" as="geometry"/>
        </mxCell>
        <mxCell id="DOr79SxjIFYAmsH0iGoC-55" value="" style="shape=flexArrow;endArrow=classic;html=1;" edge="1" parent="1">
          <mxGeometry width="50" height="50" relative="1" as="geometry">
            <mxPoint x="-70" y="720" as="sourcePoint"/>
            <mxPoint x="-20" y="670" as="targetPoint"/>
          </mxGeometry>
        </mxCell>
      </root>
    </mxGraphModel>
  </diagram>
</mxfile>
